<svg xmlns="http://www.w3.org/2000/svg" xmlns:xlink="http://www.w3.org/1999/xlink" width="1920" zoomAndPan="magnify" viewBox="0 0 1440 809.999993" height="1080" preserveAspectRatio="xMidYMid meet" version="1.0"><rect x="-144" width="1728" fill="#ffffff" y="-80.999999" height="971.999992" fill-opacity="1"/><rect x="-144" width="1728" fill="#ffffff" y="-80.999999" height="971.999992" fill-opacity="1"/><rect x="-144" width="1728" fill="#ffffff" y="-80.999999" height="971.999992" fill-opacity="1"/><path fill="#000000" d="M 791.515625 424.925781 L 791.515625 474.058594 L 761.078125 474.058594 L 761.078125 424.925781 C 761.078125 417.828125 761.078125 400.632812 745.519531 400.632812 C 727.777344 400.632812 726.824219 418.511719 726.824219 418.511719 L 726.824219 474.195312 L 696.253906 474.195312 L 696.253906 375.792969 L 726.824219 375.792969 L 726.824219 389.304688 C 734.058594 374.566406 748.796875 373.472656 758.488281 373.472656 C 769.542969 373.472656 779.367188 377.703125 785.101562 387.257812 C 790.011719 395.308594 791.515625 406.773438 791.515625 424.925781 Z M 791.515625 424.925781 " fill-opacity="1" fill-rule="nonzero"/><path fill="#000000" d="M 683.96875 344.8125 C 683.96875 345.394531 683.941406 345.972656 683.882812 346.550781 C 683.828125 347.128906 683.742188 347.703125 683.628906 348.273438 C 683.515625 348.84375 683.375 349.40625 683.207031 349.964844 C 683.035156 350.519531 682.839844 351.066406 682.617188 351.601562 C 682.398438 352.140625 682.148438 352.664062 681.875 353.175781 C 681.601562 353.6875 681.300781 354.1875 680.980469 354.671875 C 680.65625 355.152344 680.3125 355.621094 679.941406 356.070312 C 679.574219 356.519531 679.183594 356.949219 678.773438 357.359375 C 678.363281 357.769531 677.933594 358.160156 677.484375 358.527344 C 677.035156 358.898438 676.566406 359.242188 676.085938 359.566406 C 675.601562 359.886719 675.101562 360.1875 674.589844 360.460938 C 674.078125 360.734375 673.554688 360.980469 673.015625 361.203125 C 672.480469 361.425781 671.933594 361.621094 671.378906 361.792969 C 670.820312 361.960938 670.257812 362.101562 669.6875 362.214844 C 669.117188 362.328125 668.542969 362.414062 667.964844 362.46875 C 667.386719 362.527344 666.808594 362.554688 666.226562 362.554688 C 665.644531 362.554688 665.066406 362.527344 664.488281 362.46875 C 663.910156 362.414062 663.335938 362.328125 662.765625 362.214844 C 662.195312 362.101562 661.632812 361.960938 661.078125 361.792969 C 660.519531 361.621094 659.976562 361.425781 659.4375 361.203125 C 658.902344 360.980469 658.375 360.734375 657.863281 360.460938 C 657.351562 360.1875 656.855469 359.886719 656.371094 359.566406 C 655.886719 359.242188 655.421875 358.898438 654.972656 358.527344 C 654.523438 358.160156 654.09375 357.769531 653.683594 357.359375 C 653.269531 356.949219 652.882812 356.519531 652.511719 356.070312 C 652.144531 355.621094 651.796875 355.152344 651.476562 354.671875 C 651.152344 354.1875 650.855469 353.6875 650.582031 353.175781 C 650.304688 352.664062 650.058594 352.140625 649.835938 351.601562 C 649.613281 351.066406 649.417969 350.519531 649.25 349.964844 C 649.082031 349.40625 648.941406 348.84375 648.824219 348.273438 C 648.710938 347.703125 648.628906 347.128906 648.570312 346.550781 C 648.515625 345.972656 648.484375 345.394531 648.484375 344.8125 C 648.484375 344.230469 648.515625 343.652344 648.570312 343.074219 C 648.628906 342.496094 648.710938 341.921875 648.824219 341.351562 C 648.941406 340.78125 649.082031 340.21875 649.25 339.664062 C 649.417969 339.105469 649.613281 338.558594 649.835938 338.023438 C 650.058594 337.488281 650.304688 336.960938 650.582031 336.449219 C 650.855469 335.9375 651.152344 335.4375 651.476562 334.957031 C 651.796875 334.472656 652.144531 334.007812 652.511719 333.558594 C 652.882812 333.109375 653.269531 332.679688 653.683594 332.265625 C 654.09375 331.855469 654.523438 331.464844 654.972656 331.097656 C 655.421875 330.730469 655.886719 330.382812 656.371094 330.0625 C 656.855469 329.738281 657.351562 329.441406 657.863281 329.164062 C 658.375 328.890625 658.902344 328.644531 659.4375 328.421875 C 659.976562 328.199219 660.519531 328.003906 661.078125 327.835938 C 661.632812 327.667969 662.195312 327.523438 662.765625 327.410156 C 663.335938 327.296875 663.910156 327.214844 664.488281 327.15625 C 665.066406 327.097656 665.644531 327.070312 666.226562 327.070312 C 666.808594 327.070312 667.386719 327.097656 667.964844 327.15625 C 668.542969 327.214844 669.117188 327.296875 669.6875 327.410156 C 670.257812 327.523438 670.820312 327.667969 671.378906 327.835938 C 671.933594 328.003906 672.480469 328.199219 673.015625 328.421875 C 673.554688 328.644531 674.078125 328.890625 674.589844 329.164062 C 675.105469 329.441406 675.601562 329.738281 676.085938 330.0625 C 676.566406 330.382812 677.035156 330.730469 677.484375 331.097656 C 677.933594 331.464844 678.363281 331.855469 678.773438 332.265625 C 679.183594 332.679688 679.574219 333.109375 679.941406 333.558594 C 680.3125 334.007812 680.65625 334.472656 680.980469 334.957031 C 681.300781 335.4375 681.601562 335.9375 681.875 336.449219 C 682.148438 336.960938 682.398438 337.488281 682.617188 338.023438 C 682.839844 338.558594 683.035156 339.105469 683.207031 339.664062 C 683.375 340.21875 683.515625 340.78125 683.628906 341.351562 C 683.742188 341.921875 683.828125 342.496094 683.882812 343.074219 C 683.941406 343.652344 683.96875 344.230469 683.96875 344.8125 Z M 683.96875 344.8125 " fill-opacity="1" fill-rule="nonzero"/><path fill="#000000" d="M 651.078125 375.792969 L 681.511719 375.792969 L 681.511719 474.195312 L 651.078125 474.195312 Z M 651.078125 375.792969 " fill-opacity="1" fill-rule="nonzero"/><path fill="#000000" d="M 720 567 C 630.742188 567 558 494.394531 558 405 C 558 315.605469 630.742188 243 720 243 C 809.257812 243 882 315.742188 882 405 C 882 494.257812 809.394531 567 720 567 Z M 720 251.871094 C 635.519531 251.871094 566.871094 320.519531 566.871094 405 C 566.871094 489.480469 635.519531 558.128906 720 558.128906 C 804.480469 558.128906 873.128906 489.480469 873.128906 405 C 873.128906 320.519531 804.480469 251.871094 720 251.871094 Z M 720 251.871094 " fill-opacity="1" fill-rule="nonzero"/></svg>