<svg width="25" height="25" viewBox="0 0 25 25" fill="none" xmlns="http://www.w3.org/2000/svg">
<circle cx="12.5" cy="12.5" r="12.5" fill="#87B7FF"/>
<circle cx="12.5" cy="12.5" r="12.5" stroke="black"/>
<path d="M12.3702 19.0261C10.5121 19.0261 8.9383 18.3813 7.64872 17.0918C6.35914 15.8022 5.71436 14.2283 5.71436 12.3702C5.71436 10.5121 6.35914 8.9383 7.64872 7.64872C8.9383 6.35914 10.5121 5.71436 12.3702 5.71436C13.327 5.71436 14.2422 5.91209 15.1158 6.30756C15.9894 6.70248 16.7382 7.2674 17.3622 8.00232V5.71436H19.0261V11.5383H13.2022V9.87428H16.6966C16.2528 9.09776 15.6463 8.48764 14.877 8.04391C14.1071 7.60019 13.2716 7.37833 12.3702 7.37833C10.9836 7.37833 9.80495 7.86365 8.8343 8.8343C7.86365 9.80495 7.37833 10.9836 7.37833 12.3702C7.37833 13.7569 7.86365 14.9355 8.8343 15.9062C9.80495 16.8768 10.9836 17.3622 12.3702 17.3622C13.438 17.3622 14.4017 17.0571 15.2614 16.447C16.1211 15.8368 16.7243 15.0326 17.071 14.0342H18.8181C18.4299 15.5041 17.6395 16.7035 16.447 17.6325C15.2545 18.5616 13.8955 19.0261 12.3702 19.0261Z" fill="#1C1B1F"/>
</svg>
