<svg width="474" height="115" viewBox="0 0 474 115" fill="none" xmlns="http://www.w3.org/2000/svg">
<path d="M20.3576 68.0589C14.0717 67.0477 8.58822 63.6043 4.89773 58.7269C4.81368 58.62 4.72964 58.5079 4.65323 58.3958C3.07414 56.2361 1.84397 53.8063 1.05188 51.1881C0.692762 50.0292 0.43043 48.8398 0.252145 47.6198C0.0840488 46.4813 0 45.3199 0 44.1356C0 43.1143 0.0662201 42.1057 0.191019 41.1175C0.608715 37.7581 1.71408 34.6127 3.36703 31.8263C4.5921 29.7481 6.12535 27.871 7.89546 26.2511C11.3032 23.1337 15.605 20.979 20.3576 20.2098H89.0048C90.7596 19.2063 92.1018 17.5432 92.6774 15.5642C92.8863 14.8638 92.9958 14.1176 92.9958 13.3535V12.6658C92.9958 9.28863 90.8513 6.39023 87.8561 5.26704C86.5597 5.08111 85.2328 4.98687 83.8855 4.98687H54.0483C52.6194 4.98687 51.2161 5.09385 49.8433 5.2976C49.8331 5.2976 49.8255 5.2976 49.8153 5.30269C49.7134 5.31543 49.6166 5.33071 49.5147 5.34854C42.4521 6.48446 36.2478 10.231 31.9333 15.5642H23.6635C29.2489 6.76972 38.8176 0.748795 49.8127 0.06622C50.5055 0.0229225 51.2008 0 51.9037 0H86.9596C87.0997 0 87.2397 3.26084e-07 87.3773 0.00509385C92.2037 1.33204 96.0648 4.36797 97.891 8.22911C97.9827 8.42777 98.0718 8.62643 98.1559 8.83273C98.7238 10.2157 99.0295 11.698 99.0295 13.2389C99.0295 14.031 98.9505 14.8053 98.79 15.5617C98.4513 17.2299 97.7433 18.7963 96.7449 20.2098C94.8143 22.935 91.7809 25.0872 88.1388 26.2486H20.3346C19.945 26.3505 19.5629 26.4676 19.1809 26.5873V26.5924C19.0968 26.6153 19.0128 26.6434 18.9313 26.6714C18.8421 26.7019 18.7581 26.7325 18.6689 26.7631C15.6305 27.843 12.9486 29.5978 10.8448 31.8238C8.41249 34.3936 6.74425 37.5926 6.16101 41.115C6.01074 42.0242 5.93178 42.9539 5.93178 43.9013C5.93178 45.0169 6.03875 46.112 6.2476 47.1716C6.27562 47.3193 6.30873 47.4695 6.34184 47.6173C6.82575 49.7872 7.72482 51.8222 8.96008 53.6382C9.03394 53.7503 9.11289 53.8572 9.18675 53.9642C12.7346 58.9536 18.8345 62.2519 25.7494 62.2519H34.9183C34.7808 62.1678 34.6407 62.0838 34.5032 61.9997C28.9254 58.5843 24.4173 53.5745 21.6208 47.6147C21.6081 47.5867 21.5928 47.5587 21.5852 47.5307C21.524 47.411 21.468 47.2913 21.412 47.169C20.7116 45.6154 20.1258 43.9981 19.6648 42.3273C19.5527 41.9223 19.4508 41.5174 19.3541 41.1099C18.7734 38.647 18.4677 36.0823 18.4677 33.4436C18.4677 32.9011 18.4805 32.3561 18.5034 31.8187H25.2451C25.2145 32.3561 25.2018 32.8961 25.2018 33.4436C25.2018 36.0975 25.5584 38.6648 26.2359 41.1099C26.3199 41.4206 26.4116 41.7313 26.5084 42.037C26.9796 43.5473 27.573 45.0067 28.2734 46.3973C28.3396 46.5297 28.4084 46.6622 28.4797 46.7921C28.6223 47.0697 28.7726 47.3447 28.9229 47.6122C31.1463 51.5523 34.2739 54.9142 38.0128 57.4255C38.1122 57.4968 38.2038 57.5554 38.3032 57.6165C40.3815 58.9791 42.6431 60.0794 45.05 60.8638C45.134 60.8969 45.2181 60.9249 45.3047 60.9479C46.4635 61.3197 47.6478 61.6177 48.8576 61.8367C48.8627 61.8367 48.8627 61.8367 48.8627 61.8367C49.1327 61.8877 49.4001 61.9335 49.6701 61.9692C49.6752 61.9743 49.6803 61.9743 49.6803 61.9692C49.7236 61.9794 49.7643 61.987 49.8076 61.9921C51.1931 62.1959 52.6041 62.3028 54.0432 62.3028H60.4894V68.0563H53.4981C52.296 68.2499 51.0658 68.3569 49.8102 68.3619C49.749 68.367 49.6854 68.367 49.6242 68.367H24.2289C22.9096 68.3696 21.6132 68.2652 20.3576 68.0589ZM110.037 58.2583C110.014 58.1692 109.986 58.0826 109.953 57.9883C109.935 57.917 109.912 57.8457 109.887 57.7693C109.141 55.3905 108.033 53.1721 106.632 51.1753C106.553 51.0633 106.472 50.9461 106.39 50.8417C105.56 49.6828 104.622 48.6106 103.601 47.6224C100.122 44.2579 95.637 41.9223 90.6475 41.1175H49.8127V46.7997H57.8839C58.7652 46.7997 59.6337 46.8405 60.492 46.9194C60.9326 46.9576 61.3656 47.0086 61.796 47.0697C61.8011 47.0697 61.8011 47.0697 61.8011 47.0697C62.1347 47.1155 62.4607 47.169 62.7893 47.2301C62.7893 47.2301 62.7893 47.2301 62.7944 47.2301C63.4286 47.3346 64.0628 47.4695 64.6791 47.6249C64.9032 47.6758 65.1197 47.7344 65.3388 47.7956C65.4228 47.8185 65.5119 47.8414 65.596 47.8669C68.1837 48.5953 70.616 49.6777 72.8496 51.0683C72.9464 51.1295 73.0432 51.1881 73.1425 51.2492C77.2787 53.8929 80.6916 57.5732 83.0042 61.9208C83.0781 62.0481 85.0086 65.3107 85.4926 66.9051C85.5155 66.979 86.7253 72.7809 86.7253 75.2667C86.7253 76.288 86.6769 77.2966 86.5674 78.2848H92.6647C92.7284 77.4392 92.7615 76.5911 92.7615 75.7302C92.7615 73.0967 92.4558 70.5268 91.8752 68.064C91.7936 67.7227 91.7096 67.3814 91.6179 67.0477C91.6001 66.9688 91.516 66.6657 91.4931 66.5918C91.0194 64.9134 90.4158 63.2885 89.6924 61.7272C89.6339 61.6024 89.5804 61.4751 89.5192 61.3554C86.8628 55.7623 82.7062 51.0072 77.5818 47.6224H89.1016C94.31 48.7124 98.7315 51.7331 101.452 55.826C101.523 55.9355 101.594 56.0476 101.666 56.1596C102.822 57.9883 103.644 60.0233 104.042 62.1908C104.062 62.2646 104.075 62.3385 104.085 62.4123C104.103 62.5015 104.116 62.5906 104.126 62.6772C104.258 63.5279 104.33 64.3913 104.33 65.2751C104.33 66.2225 104.251 67.1573 104.098 68.0614C103.428 72.0423 101.352 75.6029 98.3571 78.2822C96.5793 79.8766 94.4807 81.1551 92.1604 82.0338C92.1451 82.1357 44.3572 82.7572 44.0236 82.4286H30.0282C27.7666 82.4286 25.6042 82.7673 23.6176 83.3939C20.0978 84.4865 17.1306 86.4604 15.144 88.9691C14.1354 90.2426 13.379 91.651 12.9256 93.1512C12.6149 94.1979 12.4468 95.2829 12.4468 96.4036C12.4468 97.402 12.5767 98.3749 12.8263 99.3122H12.8314C12.8772 99.5032 12.9333 99.6916 12.9944 99.8801C14.4054 104.24 18.399 107.788 23.6049 109.408C23.7475 109.413 23.8978 109.413 24.0404 109.413H59.0988C59.5674 109.413 60.031 109.403 60.492 109.385C69.1999 109.021 77.0775 105.315 82.8718 99.5185C84.7794 97.6083 86.4655 95.4714 87.8714 93.1537H80.498C76.4077 98.329 70.5803 102.07 63.9048 103.494H63.8997C63.7877 103.517 63.6807 103.54 63.5661 103.566C62.5575 103.764 61.5337 103.92 60.492 104.006C59.6311 104.085 58.7601 104.126 57.8839 104.126H28.0467C26.6383 104.126 25.2502 104.024 23.8927 103.823H23.8901C23.4368 103.655 23.0013 103.448 22.5938 103.201C22.5938 103.201 22.5938 103.201 22.5887 103.201C20.2684 101.821 18.7021 99.2918 18.7021 96.4061C18.7021 95.2447 18.9542 94.1419 19.4076 93.1537C19.8023 92.2801 20.3499 91.4931 21.0198 90.8258C21.8373 90.0133 22.8255 89.3715 23.9309 88.9716H90.645C95.1607 88.2432 99.2638 86.2643 102.582 83.3964C104.299 81.9141 105.809 80.1975 107.057 78.2873C109.026 75.2768 110.345 71.8028 110.814 68.0665C110.936 67.0758 111 66.0697 111 65.0484C111.003 62.69 110.664 60.413 110.037 58.2583Z" fill="url(#paint0_radial_103_29)"/>
<path d="M134.48 66C131.533 66 129.367 65.87 127.98 65.61C126.593 65.35 125.9 65.0467 125.9 64.7L128.5 59.045C129.497 59.2183 131.967 59.3917 135.91 59.565C139.897 59.695 145.357 59.76 152.29 59.76H153.525C155.388 59.76 156.71 59.435 157.49 58.785C158.27 58.0917 158.66 56.9433 158.66 55.34V54.04C158.66 52.5233 158.335 51.44 157.685 50.79C157.078 50.14 155.692 49.815 153.525 49.815H138.445C134.068 49.815 130.883 49.0133 128.89 47.41C126.897 45.7633 125.9 43.0983 125.9 39.415V38.375C125.9 36.4683 126.247 34.7133 126.94 33.11C127.677 31.5067 128.912 30.2283 130.645 29.275C132.378 28.2783 134.762 27.78 137.795 27.78H155.475C158.422 27.78 160.805 27.9317 162.625 28.235C164.445 28.5383 165.355 28.8633 165.355 29.21L164.055 34.67C162.928 34.54 160.372 34.41 156.385 34.28C152.398 34.1067 147.047 34.02 140.33 34.02L139.615 33.955C137.622 33.955 136.278 34.3667 135.585 35.19C134.892 35.97 134.523 36.9667 134.48 38.18V39.285C134.48 40.715 134.87 41.7983 135.65 42.535C136.473 43.2283 137.817 43.575 139.68 43.575H154.11C156.883 43.575 159.245 43.8567 161.195 44.42C163.145 44.9833 164.64 46.0233 165.68 47.54C166.72 49.0133 167.24 51.2017 167.24 54.105V55.145C167.24 58.395 166.395 61.0167 164.705 63.01C163.058 65.0033 160.177 66 156.06 66H134.48ZM175.031 78.09V36.88H180.361L181.986 37.725C183.936 37.5083 186.254 37.3133 188.941 37.14C191.671 36.9667 194.769 36.88 198.236 36.88H201.551C203.718 36.88 205.386 37.1617 206.556 37.725C207.726 38.2883 208.549 39.0033 209.026 39.87C209.546 40.7367 209.849 41.6467 209.936 42.6C210.066 43.5533 210.131 44.42 210.131 45.2V57.68C210.131 58.33 210.066 59.1317 209.936 60.085C209.849 60.995 209.546 61.905 209.026 62.815C208.549 63.725 207.726 64.4833 206.556 65.09C205.386 65.6967 203.718 66 201.551 66H198.236C194.943 66 192.018 65.9133 189.461 65.74C186.904 65.5667 184.738 65.3933 182.961 65.22V78.09H175.031ZM184.976 60.41H199.081C199.904 60.41 200.619 60.1933 201.226 59.76C201.876 59.3267 202.201 58.6767 202.201 57.81V45.07C202.244 44.1167 202.006 43.445 201.486 43.055C201.009 42.665 200.208 42.47 199.081 42.47H195.831C193.058 42.47 190.588 42.535 188.421 42.665C186.298 42.7517 184.478 42.86 182.961 42.99V58.395C182.961 59.3483 183.048 59.9333 183.221 60.15C183.438 60.3233 184.023 60.41 184.976 60.41ZM225.236 66C223.07 66 221.401 65.7183 220.231 65.155C219.061 64.5917 218.216 63.8767 217.696 63.01C217.22 62.1433 216.916 61.2333 216.786 60.28C216.7 59.3267 216.656 58.46 216.656 57.68V45.2C216.656 44.55 216.7 43.77 216.786 42.86C216.916 41.9067 217.22 40.975 217.696 40.065C218.216 39.155 219.061 38.3967 220.231 37.79C221.445 37.1833 223.113 36.88 225.236 36.88H239.211C242.071 36.88 244.303 37.1617 245.906 37.725C247.553 38.245 248.701 39.1117 249.351 40.325C250.045 41.5383 250.391 43.1633 250.391 45.2V54.82H239.016C235.116 54.82 231.931 54.7333 229.461 54.56C227.035 54.3867 225.41 54.2783 224.586 54.235V57.81C224.543 59.5433 225.583 60.41 227.706 60.41H231.021C233.361 60.41 235.636 60.3883 237.846 60.345C240.1 60.2583 242.158 60.1717 244.021 60.085C245.885 59.955 247.38 59.8467 248.506 59.76L251.106 63.985C251.106 65.3283 246.838 66 238.301 66H225.236ZM224.586 49.23H242.461V45.07C242.461 44.2033 242.353 43.5967 242.136 43.25C241.963 42.9033 241.4 42.6867 240.446 42.6C239.493 42.5133 237.868 42.47 235.571 42.47H227.706C225.626 42.47 224.586 43.3367 224.586 45.07V49.23ZM265.544 66C263.377 66 261.709 65.7183 260.539 65.155C259.369 64.5917 258.524 63.8767 258.004 63.01C257.527 62.1433 257.224 61.2333 257.094 60.28C257.007 59.3267 256.964 58.46 256.964 57.68V45.2C256.964 44.55 257.007 43.77 257.094 42.86C257.224 41.9067 257.527 40.975 258.004 40.065C258.524 39.155 259.369 38.3967 260.539 37.79C261.752 37.1833 263.421 36.88 265.544 36.88H274.579C279.996 36.88 283.831 37.0317 286.084 37.335C288.381 37.595 289.529 37.8767 289.529 38.18L288.229 43.12C287.016 43.0333 285.477 42.9467 283.614 42.86C281.751 42.73 279.736 42.6433 277.569 42.6C275.446 42.5133 273.366 42.47 271.329 42.47H268.014C265.934 42.47 264.894 43.3367 264.894 45.07V57.81C264.851 59.5433 265.891 60.41 268.014 60.41H271.329C273.669 60.41 275.944 60.3883 278.154 60.345C280.407 60.2583 282.466 60.1717 284.329 60.085C286.192 59.955 287.687 59.8467 288.814 59.76L291.414 63.985C291.414 65.3283 287.146 66 278.609 66H265.544ZM304.534 66C302.41 66 300.742 65.7183 299.529 65.155C298.359 64.5917 297.514 63.8767 296.994 63.01C296.517 62.1433 296.214 61.2333 296.084 60.28C295.997 59.3267 295.954 58.46 295.954 57.68V36.88H303.884V57.81C303.84 58.7633 304.144 59.435 304.794 59.825C305.487 60.215 306.224 60.41 307.004 60.41H319.874C320.827 60.41 321.39 60.3233 321.564 60.15C321.737 59.9767 321.824 59.4133 321.824 58.46V36.88H329.754V66H324.424L321.954 64.7C320.22 65.0467 318.162 65.35 315.779 65.61C313.439 65.87 310.795 66 307.849 66H304.534ZM338.181 66V29.99L337.531 24.79H346.111V66H338.181ZM362.293 66C358.999 66 356.616 65.2417 355.143 63.725C353.669 62.165 352.933 60.0417 352.933 57.355C352.933 54.5383 353.691 52.3717 355.208 50.855C356.768 49.3383 359.129 48.58 362.293 48.58H365.608C368.858 48.58 371.783 48.6667 374.383 48.84C376.983 49.0133 379.128 49.1867 380.818 49.36V45.07C380.818 44.68 380.774 44.29 380.688 43.9C380.601 43.4667 380.341 43.12 379.908 42.86C379.474 42.6 378.738 42.47 377.698 42.47H374.448C369.724 42.47 365.781 42.5567 362.618 42.73C359.454 42.86 357.309 42.99 356.183 43.12L355.468 38.18C355.468 37.5733 357.114 37.205 360.408 37.075C363.701 36.945 369.204 36.88 376.918 36.88H380.168C382.334 36.88 384.003 37.1833 385.173 37.79C386.343 38.3967 387.166 39.155 387.643 40.065C388.163 40.975 388.466 41.9067 388.553 42.86C388.683 43.77 388.748 44.55 388.748 45.2V66H383.418L380.883 64.7C379.063 65.0033 376.874 65.3067 374.318 65.61C371.761 65.87 368.836 66 365.543 66H362.293ZM363.983 60.41H378.868C379.821 60.41 380.384 60.3233 380.558 60.15C380.731 59.9767 380.818 59.435 380.818 58.525V53.52H363.983C362.813 53.52 361.989 53.8017 361.513 54.365C361.079 54.9283 360.863 55.8167 360.863 57.03C360.863 58.2433 361.123 59.11 361.643 59.63C362.163 60.15 362.943 60.41 363.983 60.41Z" fill="#FAF0CA"/>
<path d="M142.632 94.1689V88.0752H143.995V96H142.698L142.632 94.1689ZM142.889 92.499L143.453 92.4844C143.453 93.0117 143.396 93.5 143.284 93.9492C143.177 94.3936 143.001 94.7793 142.757 95.1064C142.513 95.4336 142.193 95.6899 141.797 95.8755C141.402 96.0562 140.921 96.1465 140.354 96.1465C139.969 96.1465 139.615 96.0903 139.292 95.978C138.975 95.8657 138.702 95.6924 138.472 95.458C138.243 95.2236 138.064 94.9185 137.938 94.5425C137.815 94.1665 137.754 93.7148 137.754 93.1875V88.0752H139.109V93.2021C139.109 93.5586 139.148 93.854 139.227 94.0884C139.31 94.3179 139.419 94.501 139.556 94.6377C139.698 94.7695 139.854 94.8623 140.025 94.916C140.201 94.9697 140.381 94.9966 140.567 94.9966C141.143 94.9966 141.6 94.8867 141.937 94.667C142.273 94.4424 142.515 94.1421 142.662 93.7661C142.813 93.3853 142.889 92.9629 142.889 92.499ZM147.408 89.6499V96H146.045V88.0752H147.334L147.408 89.6499ZM147.129 91.7373L146.5 91.7153C146.504 91.1733 146.575 90.6729 146.712 90.2139C146.849 89.75 147.051 89.3472 147.32 89.0054C147.588 88.6636 147.923 88.3999 148.323 88.2144C148.724 88.0239 149.188 87.9287 149.715 87.9287C150.086 87.9287 150.428 87.9824 150.74 88.0898C151.053 88.1924 151.324 88.356 151.553 88.5806C151.783 88.8052 151.961 89.0933 152.088 89.4448C152.215 89.7964 152.278 90.2212 152.278 90.7192V96H150.923V90.7852C150.923 90.3701 150.853 90.0381 150.711 89.7891C150.574 89.54 150.379 89.3594 150.125 89.2471C149.871 89.1299 149.573 89.0713 149.231 89.0713C148.831 89.0713 148.497 89.1421 148.228 89.2837C147.959 89.4253 147.745 89.6206 147.583 89.8696C147.422 90.1187 147.305 90.4043 147.232 90.7266C147.164 91.0439 147.129 91.3809 147.129 91.7373ZM152.264 90.9902L151.355 91.2686C151.36 90.834 151.431 90.4165 151.568 90.0161C151.709 89.6157 151.912 89.2593 152.176 88.9468C152.444 88.6343 152.774 88.3877 153.165 88.207C153.555 88.0215 154.002 87.9287 154.505 87.9287C154.93 87.9287 155.306 87.9849 155.633 88.0972C155.965 88.2095 156.243 88.3828 156.468 88.6172C156.697 88.8467 156.871 89.1421 156.988 89.5034C157.105 89.8647 157.164 90.2944 157.164 90.7925V96H155.801V90.7778C155.801 90.3335 155.73 89.9893 155.589 89.7451C155.452 89.4961 155.257 89.3228 155.003 89.2251C154.754 89.1226 154.456 89.0713 154.109 89.0713C153.812 89.0713 153.548 89.1226 153.318 89.2251C153.089 89.3276 152.896 89.4692 152.74 89.6499C152.583 89.8257 152.464 90.0283 152.381 90.2578C152.303 90.4873 152.264 90.7314 152.264 90.9902ZM163.887 94.645V90.5654C163.887 90.2529 163.824 89.9819 163.697 89.7524C163.575 89.5181 163.389 89.3374 163.14 89.2104C162.891 89.0835 162.583 89.02 162.217 89.02C161.875 89.02 161.575 89.0786 161.316 89.1958C161.062 89.313 160.862 89.4668 160.716 89.6572C160.574 89.8477 160.503 90.0527 160.503 90.2725H159.148C159.148 89.9893 159.222 89.7085 159.368 89.4302C159.515 89.1519 159.725 88.9004 159.998 88.6758C160.276 88.4463 160.608 88.2656 160.994 88.1338C161.385 87.9971 161.819 87.9287 162.298 87.9287C162.874 87.9287 163.382 88.0264 163.821 88.2217C164.266 88.417 164.612 88.7124 164.861 89.1079C165.115 89.4985 165.242 89.9893 165.242 90.5801V94.2715C165.242 94.5352 165.264 94.8159 165.308 95.1138C165.357 95.4116 165.428 95.668 165.521 95.8828V96H164.107C164.039 95.8438 163.985 95.6362 163.946 95.3774C163.907 95.1138 163.887 94.8696 163.887 94.645ZM164.122 91.1953L164.136 92.1475H162.767C162.381 92.1475 162.037 92.1792 161.734 92.2427C161.431 92.3013 161.177 92.3916 160.972 92.5137C160.767 92.6357 160.611 92.7896 160.503 92.9751C160.396 93.1558 160.342 93.3682 160.342 93.6123C160.342 93.8613 160.398 94.0884 160.511 94.2935C160.623 94.4985 160.792 94.6621 161.016 94.7842C161.246 94.9014 161.526 94.96 161.858 94.96C162.273 94.96 162.64 94.8721 162.957 94.6963C163.274 94.5205 163.526 94.3057 163.711 94.0518C163.902 93.7979 164.004 93.5513 164.019 93.312L164.598 93.9639C164.563 94.1689 164.471 94.396 164.319 94.645C164.168 94.894 163.965 95.1333 163.711 95.3628C163.462 95.5874 163.165 95.7754 162.818 95.9268C162.476 96.0732 162.09 96.1465 161.661 96.1465C161.124 96.1465 160.652 96.0415 160.247 95.8315C159.847 95.6216 159.534 95.3408 159.31 94.9893C159.09 94.6328 158.98 94.2349 158.98 93.7954C158.98 93.3706 159.063 92.9971 159.229 92.6748C159.395 92.3477 159.634 92.0767 159.947 91.8618C160.259 91.6421 160.635 91.4761 161.075 91.3638C161.514 91.2515 162.005 91.1953 162.547 91.1953H164.122ZM173.504 94.7769L175.672 88.0752H177.056L174.207 96H173.299L173.504 94.7769ZM171.695 88.0752L173.929 94.8135L174.083 96H173.174L170.303 88.0752H171.695ZM179.832 88.0752V96H178.47V88.0752H179.832ZM178.367 85.9731C178.367 85.7534 178.433 85.5679 178.565 85.4165C178.702 85.2651 178.902 85.1895 179.166 85.1895C179.424 85.1895 179.622 85.2651 179.759 85.4165C179.9 85.5679 179.971 85.7534 179.971 85.9731C179.971 86.1831 179.9 86.3638 179.759 86.5151C179.622 86.6616 179.424 86.7349 179.166 86.7349C178.902 86.7349 178.702 86.6616 178.565 86.5151C178.433 86.3638 178.367 86.1831 178.367 85.9731ZM186.622 93.8979C186.622 93.7026 186.578 93.522 186.49 93.356C186.407 93.1851 186.233 93.0312 185.97 92.8945C185.711 92.7529 185.32 92.6309 184.798 92.5283C184.358 92.4355 183.96 92.3257 183.604 92.1987C183.252 92.0718 182.952 91.918 182.703 91.7373C182.459 91.5566 182.271 91.3442 182.139 91.1001C182.007 90.856 181.941 90.5703 181.941 90.2432C181.941 89.9307 182.01 89.6353 182.146 89.3569C182.288 89.0786 182.486 88.832 182.74 88.6172C182.999 88.4023 183.309 88.2339 183.67 88.1118C184.031 87.9897 184.434 87.9287 184.878 87.9287C185.513 87.9287 186.055 88.041 186.504 88.2656C186.954 88.4902 187.298 88.7905 187.537 89.1665C187.776 89.5376 187.896 89.9502 187.896 90.4043H186.541C186.541 90.1846 186.475 89.9722 186.343 89.7671C186.216 89.5571 186.028 89.3838 185.779 89.2471C185.535 89.1104 185.235 89.042 184.878 89.042C184.502 89.042 184.197 89.1006 183.963 89.2178C183.733 89.3301 183.565 89.4741 183.458 89.6499C183.355 89.8257 183.304 90.0112 183.304 90.2065C183.304 90.353 183.328 90.4849 183.377 90.6021C183.431 90.7144 183.523 90.8193 183.655 90.917C183.787 91.0098 183.973 91.0977 184.212 91.1807C184.451 91.2637 184.756 91.3467 185.127 91.4297C185.777 91.5762 186.312 91.752 186.731 91.957C187.151 92.1621 187.464 92.4136 187.669 92.7114C187.874 93.0093 187.977 93.3706 187.977 93.7954C187.977 94.1421 187.903 94.4595 187.757 94.7476C187.615 95.0356 187.408 95.2847 187.134 95.4946C186.866 95.6997 186.543 95.8608 186.167 95.978C185.796 96.0903 185.379 96.1465 184.915 96.1465C184.217 96.1465 183.626 96.022 183.143 95.7729C182.659 95.5239 182.293 95.2017 182.044 94.8062C181.795 94.4106 181.67 93.9932 181.67 93.5537H183.033C183.052 93.9248 183.16 94.2202 183.355 94.4399C183.55 94.6548 183.79 94.8086 184.073 94.9014C184.356 94.9893 184.637 95.0332 184.915 95.0332C185.286 95.0332 185.596 94.9844 185.845 94.8867C186.099 94.7891 186.292 94.6548 186.424 94.4839C186.556 94.313 186.622 94.1177 186.622 93.8979ZM194.429 94.645V90.5654C194.429 90.2529 194.366 89.9819 194.239 89.7524C194.117 89.5181 193.931 89.3374 193.682 89.2104C193.433 89.0835 193.125 89.02 192.759 89.02C192.417 89.02 192.117 89.0786 191.858 89.1958C191.604 89.313 191.404 89.4668 191.258 89.6572C191.116 89.8477 191.045 90.0527 191.045 90.2725H189.69C189.69 89.9893 189.764 89.7085 189.91 89.4302C190.057 89.1519 190.267 88.9004 190.54 88.6758C190.818 88.4463 191.15 88.2656 191.536 88.1338C191.927 87.9971 192.361 87.9287 192.84 87.9287C193.416 87.9287 193.924 88.0264 194.363 88.2217C194.808 88.417 195.154 88.7124 195.403 89.1079C195.657 89.4985 195.784 89.9893 195.784 90.5801V94.2715C195.784 94.5352 195.806 94.8159 195.85 95.1138C195.899 95.4116 195.97 95.668 196.062 95.8828V96H194.649C194.581 95.8438 194.527 95.6362 194.488 95.3774C194.449 95.1138 194.429 94.8696 194.429 94.645ZM194.664 91.1953L194.678 92.1475H193.309C192.923 92.1475 192.579 92.1792 192.276 92.2427C191.973 92.3013 191.719 92.3916 191.514 92.5137C191.309 92.6357 191.153 92.7896 191.045 92.9751C190.938 93.1558 190.884 93.3682 190.884 93.6123C190.884 93.8613 190.94 94.0884 191.053 94.2935C191.165 94.4985 191.333 94.6621 191.558 94.7842C191.788 94.9014 192.068 94.96 192.4 94.96C192.815 94.96 193.182 94.8721 193.499 94.6963C193.816 94.5205 194.068 94.3057 194.253 94.0518C194.444 93.7979 194.546 93.5513 194.561 93.312L195.14 93.9639C195.105 94.1689 195.013 94.396 194.861 94.645C194.71 94.894 194.507 95.1333 194.253 95.3628C194.004 95.5874 193.707 95.7754 193.36 95.9268C193.018 96.0732 192.632 96.1465 192.203 96.1465C191.666 96.1465 191.194 96.0415 190.789 95.8315C190.389 95.6216 190.076 95.3408 189.852 94.9893C189.632 94.6328 189.522 94.2349 189.522 93.7954C189.522 93.3706 189.605 92.9971 189.771 92.6748C189.937 92.3477 190.176 92.0767 190.489 91.8618C190.801 91.6421 191.177 91.4761 191.617 91.3638C192.056 91.2515 192.547 91.1953 193.089 91.1953H194.664ZM194.671 84.8965L195.586 84.9771C195.586 85.3335 195.516 85.646 195.374 85.9146C195.232 86.1831 195.042 86.3906 194.803 86.5371C194.568 86.6836 194.302 86.7568 194.004 86.7568C193.755 86.7568 193.55 86.7227 193.389 86.6543C193.228 86.5811 193.084 86.5005 192.957 86.4126C192.83 86.3198 192.696 86.2393 192.554 86.1709C192.417 86.0977 192.247 86.061 192.042 86.061C191.836 86.061 191.663 86.1392 191.521 86.2954C191.385 86.4517 191.316 86.6445 191.316 86.874L190.401 86.8301C190.401 86.4736 190.469 86.1611 190.606 85.8926C190.748 85.6191 190.938 85.4067 191.177 85.2554C191.417 85.0991 191.683 85.021 191.976 85.021C192.186 85.021 192.369 85.0576 192.525 85.1309C192.686 85.1992 192.837 85.2798 192.979 85.3726C193.121 85.4604 193.267 85.541 193.418 85.6143C193.57 85.6826 193.743 85.7168 193.938 85.7168C194.144 85.7168 194.317 85.6387 194.458 85.4824C194.6 85.3213 194.671 85.126 194.671 84.8965ZM197.557 92.1255V91.957C197.557 91.3857 197.64 90.856 197.806 90.3677C197.972 89.8745 198.211 89.4473 198.523 89.0859C198.836 88.7197 199.214 88.4365 199.659 88.2363C200.103 88.0312 200.601 87.9287 201.153 87.9287C201.709 87.9287 202.21 88.0312 202.654 88.2363C203.104 88.4365 203.484 88.7197 203.797 89.0859C204.114 89.4473 204.356 89.8745 204.522 90.3677C204.688 90.856 204.771 91.3857 204.771 91.957V92.1255C204.771 92.6968 204.688 93.2266 204.522 93.7148C204.356 94.2031 204.114 94.6304 203.797 94.9966C203.484 95.3579 203.106 95.6411 202.662 95.8462C202.222 96.0464 201.724 96.1465 201.167 96.1465C200.611 96.1465 200.11 96.0464 199.666 95.8462C199.222 95.6411 198.841 95.3579 198.523 94.9966C198.211 94.6304 197.972 94.2031 197.806 93.7148C197.64 93.2266 197.557 92.6968 197.557 92.1255ZM198.912 91.957V92.1255C198.912 92.521 198.958 92.8945 199.051 93.2461C199.144 93.5928 199.283 93.9004 199.468 94.1689C199.659 94.4375 199.896 94.6499 200.179 94.8062C200.462 94.9575 200.792 95.0332 201.167 95.0332C201.539 95.0332 201.863 94.9575 202.142 94.8062C202.425 94.6499 202.659 94.4375 202.845 94.1689C203.03 93.9004 203.169 93.5928 203.262 93.2461C203.36 92.8945 203.409 92.521 203.409 92.1255V91.957C203.409 91.5664 203.36 91.1978 203.262 90.8511C203.169 90.4995 203.028 90.1895 202.837 89.9209C202.652 89.6475 202.417 89.4326 202.134 89.2764C201.856 89.1201 201.529 89.042 201.153 89.042C200.782 89.042 200.455 89.1201 200.171 89.2764C199.893 89.4326 199.659 89.6475 199.468 89.9209C199.283 90.1895 199.144 90.4995 199.051 90.8511C198.958 91.1978 198.912 91.5664 198.912 91.957ZM213.362 95.0332C213.685 95.0332 213.982 94.9673 214.256 94.8354C214.529 94.7036 214.754 94.5229 214.93 94.2935C215.105 94.0591 215.206 93.793 215.23 93.4951H216.519C216.495 93.9639 216.336 94.4009 216.043 94.8062C215.755 95.2065 215.376 95.5312 214.908 95.7803C214.439 96.0244 213.924 96.1465 213.362 96.1465C212.767 96.1465 212.247 96.0415 211.802 95.8315C211.363 95.6216 210.997 95.3335 210.704 94.9673C210.416 94.6011 210.198 94.1812 210.052 93.7075C209.91 93.229 209.839 92.7236 209.839 92.1914V91.8838C209.839 91.3516 209.91 90.8486 210.052 90.375C210.198 89.8965 210.416 89.4741 210.704 89.1079C210.997 88.7417 211.363 88.4536 211.802 88.2437C212.247 88.0337 212.767 87.9287 213.362 87.9287C213.982 87.9287 214.524 88.0557 214.988 88.3096C215.452 88.5586 215.816 88.9004 216.08 89.335C216.348 89.7646 216.495 90.2529 216.519 90.7998H215.23C215.206 90.4727 215.113 90.1772 214.952 89.9136C214.795 89.6499 214.581 89.4399 214.307 89.2837C214.039 89.1226 213.724 89.042 213.362 89.042C212.947 89.042 212.598 89.125 212.315 89.291C212.037 89.4521 211.814 89.6719 211.648 89.9502C211.487 90.2236 211.37 90.5288 211.297 90.8657C211.229 91.1978 211.194 91.5371 211.194 91.8838V92.1914C211.194 92.5381 211.229 92.8799 211.297 93.2168C211.365 93.5537 211.48 93.8589 211.641 94.1323C211.807 94.4058 212.029 94.6255 212.308 94.7915C212.591 94.9526 212.942 95.0332 213.362 95.0332ZM217.684 92.1255V91.957C217.684 91.3857 217.767 90.856 217.933 90.3677C218.099 89.8745 218.338 89.4473 218.65 89.0859C218.963 88.7197 219.341 88.4365 219.786 88.2363C220.23 88.0312 220.728 87.9287 221.28 87.9287C221.836 87.9287 222.337 88.0312 222.781 88.2363C223.23 88.4365 223.611 88.7197 223.924 89.0859C224.241 89.4473 224.483 89.8745 224.649 90.3677C224.815 90.856 224.898 91.3857 224.898 91.957V92.1255C224.898 92.6968 224.815 93.2266 224.649 93.7148C224.483 94.2031 224.241 94.6304 223.924 94.9966C223.611 95.3579 223.233 95.6411 222.789 95.8462C222.349 96.0464 221.851 96.1465 221.294 96.1465C220.738 96.1465 220.237 96.0464 219.793 95.8462C219.349 95.6411 218.968 95.3579 218.65 94.9966C218.338 94.6304 218.099 94.2031 217.933 93.7148C217.767 93.2266 217.684 92.6968 217.684 92.1255ZM219.039 91.957V92.1255C219.039 92.521 219.085 92.8945 219.178 93.2461C219.271 93.5928 219.41 93.9004 219.595 94.1689C219.786 94.4375 220.022 94.6499 220.306 94.8062C220.589 94.9575 220.918 95.0332 221.294 95.0332C221.666 95.0332 221.99 94.9575 222.269 94.8062C222.552 94.6499 222.786 94.4375 222.972 94.1689C223.157 93.9004 223.296 93.5928 223.389 93.2461C223.487 92.8945 223.536 92.521 223.536 92.1255V91.957C223.536 91.5664 223.487 91.1978 223.389 90.8511C223.296 90.4995 223.155 90.1895 222.964 89.9209C222.779 89.6475 222.544 89.4326 222.261 89.2764C221.983 89.1201 221.656 89.042 221.28 89.042C220.909 89.042 220.582 89.1201 220.298 89.2764C220.02 89.4326 219.786 89.6475 219.595 89.9209C219.41 90.1895 219.271 90.4995 219.178 90.8511C219.085 91.1978 219.039 91.5664 219.039 91.957ZM227.945 89.6499V96H226.583V88.0752H227.872L227.945 89.6499ZM227.667 91.7373L227.037 91.7153C227.042 91.1733 227.112 90.6729 227.249 90.2139C227.386 89.75 227.588 89.3472 227.857 89.0054C228.125 88.6636 228.46 88.3999 228.86 88.2144C229.261 88.0239 229.725 87.9287 230.252 87.9287C230.623 87.9287 230.965 87.9824 231.277 88.0898C231.59 88.1924 231.861 88.356 232.09 88.5806C232.32 88.8052 232.498 89.0933 232.625 89.4448C232.752 89.7964 232.815 90.2212 232.815 90.7192V96H231.46V90.7852C231.46 90.3701 231.39 90.0381 231.248 89.7891C231.111 89.54 230.916 89.3594 230.662 89.2471C230.408 89.1299 230.11 89.0713 229.769 89.0713C229.368 89.0713 229.034 89.1421 228.765 89.2837C228.497 89.4253 228.282 89.6206 228.121 89.8696C227.959 90.1187 227.842 90.4043 227.769 90.7266C227.701 91.0439 227.667 91.3809 227.667 91.7373ZM232.801 90.9902L231.893 91.2686C231.897 90.834 231.968 90.4165 232.105 90.0161C232.247 89.6157 232.449 89.2593 232.713 88.9468C232.981 88.6343 233.311 88.3877 233.702 88.207C234.092 88.0215 234.539 87.9287 235.042 87.9287C235.467 87.9287 235.843 87.9849 236.17 88.0972C236.502 88.2095 236.78 88.3828 237.005 88.6172C237.234 88.8467 237.408 89.1421 237.525 89.5034C237.642 89.8647 237.701 90.2944 237.701 90.7925V96H236.338V90.7778C236.338 90.3335 236.268 89.9893 236.126 89.7451C235.989 89.4961 235.794 89.3228 235.54 89.2251C235.291 89.1226 234.993 89.0713 234.646 89.0713C234.349 89.0713 234.085 89.1226 233.855 89.2251C233.626 89.3276 233.433 89.4692 233.277 89.6499C233.121 89.8257 233.001 90.0283 232.918 90.2578C232.84 90.4873 232.801 90.7314 232.801 90.9902ZM241.106 89.5986V99.0469H239.744V88.0752H240.989L241.106 89.5986ZM246.446 91.9717V92.1255C246.446 92.7017 246.377 93.2363 246.241 93.7295C246.104 94.2178 245.904 94.6426 245.64 95.0039C245.381 95.3652 245.062 95.646 244.681 95.8462C244.3 96.0464 243.863 96.1465 243.37 96.1465C242.867 96.1465 242.422 96.0635 242.037 95.8975C241.651 95.7314 241.324 95.4897 241.055 95.1724C240.787 94.855 240.572 94.4741 240.411 94.0298C240.254 93.5854 240.147 93.085 240.088 92.5283V91.708C240.147 91.1221 240.257 90.5972 240.418 90.1333C240.579 89.6694 240.792 89.2739 241.055 88.9468C241.324 88.6147 241.648 88.3633 242.029 88.1924C242.41 88.0166 242.85 87.9287 243.348 87.9287C243.846 87.9287 244.288 88.0264 244.673 88.2217C245.059 88.4121 245.384 88.6855 245.647 89.042C245.911 89.3984 246.109 89.8257 246.241 90.3237C246.377 90.8169 246.446 91.3662 246.446 91.9717ZM245.083 92.1255V91.9717C245.083 91.5762 245.042 91.2051 244.959 90.8584C244.876 90.5068 244.747 90.1992 244.571 89.9355C244.4 89.667 244.18 89.457 243.912 89.3057C243.643 89.1494 243.323 89.0713 242.952 89.0713C242.61 89.0713 242.312 89.1299 242.059 89.2471C241.81 89.3643 241.597 89.5229 241.421 89.7231C241.246 89.9185 241.102 90.1431 240.989 90.397C240.882 90.646 240.801 90.9048 240.748 91.1733V93.0703C240.845 93.4121 240.982 93.7344 241.158 94.0371C241.333 94.335 241.568 94.5767 241.861 94.7622C242.154 94.9429 242.522 95.0332 242.967 95.0332C243.333 95.0332 243.648 94.9575 243.912 94.8062C244.18 94.6499 244.4 94.4375 244.571 94.1689C244.747 93.9004 244.876 93.5928 244.959 93.2461C245.042 92.8945 245.083 92.521 245.083 92.1255ZM249.646 84.75V96H248.284V84.75H249.646ZM255.11 96.1465C254.559 96.1465 254.058 96.0537 253.609 95.8682C253.165 95.6777 252.781 95.4116 252.459 95.0698C252.142 94.728 251.897 94.3228 251.727 93.854C251.556 93.3853 251.47 92.8726 251.47 92.3159V92.0083C251.47 91.3638 251.565 90.79 251.756 90.2871C251.946 89.7793 252.205 89.3496 252.532 88.998C252.859 88.6465 253.23 88.3804 253.646 88.1997C254.061 88.019 254.49 87.9287 254.935 87.9287C255.501 87.9287 255.989 88.0264 256.399 88.2217C256.814 88.417 257.154 88.6904 257.417 89.042C257.681 89.3887 257.876 89.7988 258.003 90.2725C258.13 90.7412 258.194 91.2539 258.194 91.8105V92.4185H252.276V91.3125H256.839V91.21C256.819 90.8584 256.746 90.5166 256.619 90.1846C256.497 89.8525 256.302 89.5791 256.033 89.3643C255.765 89.1494 255.398 89.042 254.935 89.042C254.627 89.042 254.344 89.1079 254.085 89.2397C253.826 89.3667 253.604 89.5571 253.418 89.811C253.233 90.0649 253.089 90.375 252.986 90.7412C252.884 91.1074 252.833 91.5298 252.833 92.0083V92.3159C252.833 92.6919 252.884 93.0459 252.986 93.3779C253.094 93.7051 253.248 93.9932 253.448 94.2422C253.653 94.4912 253.899 94.6865 254.188 94.8281C254.48 94.9697 254.812 95.0405 255.184 95.0405C255.662 95.0405 256.067 94.9429 256.399 94.7476C256.731 94.5522 257.022 94.291 257.271 93.9639L258.091 94.6157C257.92 94.8745 257.703 95.1211 257.439 95.3555C257.176 95.5898 256.851 95.7803 256.465 95.9268C256.084 96.0732 255.633 96.1465 255.11 96.1465ZM263.094 88.0752V89.1152H258.809V88.0752H263.094ZM260.259 86.1489H261.614V94.0371C261.614 94.3057 261.656 94.5083 261.739 94.645C261.822 94.7817 261.929 94.8721 262.061 94.916C262.193 94.96 262.334 94.9819 262.486 94.9819C262.598 94.9819 262.715 94.9722 262.837 94.9526C262.964 94.9282 263.06 94.9087 263.123 94.894L263.13 96C263.023 96.0342 262.881 96.0659 262.706 96.0952C262.535 96.1294 262.327 96.1465 262.083 96.1465C261.751 96.1465 261.446 96.0806 261.167 95.9487C260.889 95.8169 260.667 95.5972 260.501 95.2896C260.34 94.9771 260.259 94.5571 260.259 94.0298V86.1489ZM269.356 94.645V90.5654C269.356 90.2529 269.292 89.9819 269.166 89.7524C269.043 89.5181 268.858 89.3374 268.609 89.2104C268.36 89.0835 268.052 89.02 267.686 89.02C267.344 89.02 267.044 89.0786 266.785 89.1958C266.531 89.313 266.331 89.4668 266.185 89.6572C266.043 89.8477 265.972 90.0527 265.972 90.2725H264.617C264.617 89.9893 264.69 89.7085 264.837 89.4302C264.983 89.1519 265.193 88.9004 265.467 88.6758C265.745 88.4463 266.077 88.2656 266.463 88.1338C266.854 87.9971 267.288 87.9287 267.767 87.9287C268.343 87.9287 268.851 88.0264 269.29 88.2217C269.734 88.417 270.081 88.7124 270.33 89.1079C270.584 89.4985 270.711 89.9893 270.711 90.5801V94.2715C270.711 94.5352 270.733 94.8159 270.777 95.1138C270.826 95.4116 270.896 95.668 270.989 95.8828V96H269.576C269.507 95.8438 269.454 95.6362 269.415 95.3774C269.375 95.1138 269.356 94.8696 269.356 94.645ZM269.59 91.1953L269.605 92.1475H268.235C267.85 92.1475 267.505 92.1792 267.203 92.2427C266.9 92.3013 266.646 92.3916 266.441 92.5137C266.236 92.6357 266.08 92.7896 265.972 92.9751C265.865 93.1558 265.811 93.3682 265.811 93.6123C265.811 93.8613 265.867 94.0884 265.979 94.2935C266.092 94.4985 266.26 94.6621 266.485 94.7842C266.714 94.9014 266.995 94.96 267.327 94.96C267.742 94.96 268.108 94.8721 268.426 94.6963C268.743 94.5205 268.995 94.3057 269.18 94.0518C269.371 93.7979 269.473 93.5513 269.488 93.312L270.066 93.9639C270.032 94.1689 269.939 94.396 269.788 94.645C269.637 94.894 269.434 95.1333 269.18 95.3628C268.931 95.5874 268.633 95.7754 268.287 95.9268C267.945 96.0732 267.559 96.1465 267.129 96.1465C266.592 96.1465 266.121 96.0415 265.716 95.8315C265.315 95.6216 265.003 95.3408 264.778 94.9893C264.559 94.6328 264.449 94.2349 264.449 93.7954C264.449 93.3706 264.532 92.9971 264.698 92.6748C264.864 92.3477 265.103 92.0767 265.416 91.8618C265.728 91.6421 266.104 91.4761 266.543 91.3638C266.983 91.2515 267.474 91.1953 268.016 91.1953H269.59ZM281.558 94.4619V84.75H282.92V96H281.675L281.558 94.4619ZM276.226 92.1255V91.9717C276.226 91.3662 276.299 90.8169 276.446 90.3237C276.597 89.8257 276.81 89.3984 277.083 89.042C277.361 88.6855 277.691 88.4121 278.072 88.2217C278.458 88.0264 278.887 87.9287 279.361 87.9287C279.859 87.9287 280.293 88.0166 280.665 88.1924C281.041 88.3633 281.358 88.6147 281.617 88.9468C281.88 89.2739 282.088 89.6694 282.239 90.1333C282.391 90.5972 282.496 91.1221 282.554 91.708V92.3818C282.5 92.9629 282.396 93.4854 282.239 93.9492C282.088 94.4131 281.88 94.8086 281.617 95.1357C281.358 95.4629 281.041 95.7144 280.665 95.8901C280.289 96.061 279.849 96.1465 279.346 96.1465C278.882 96.1465 278.458 96.0464 278.072 95.8462C277.691 95.646 277.361 95.3652 277.083 95.0039C276.81 94.6426 276.597 94.2178 276.446 93.7295C276.299 93.2363 276.226 92.7017 276.226 92.1255ZM277.588 91.9717V92.1255C277.588 92.521 277.627 92.8921 277.706 93.2388C277.789 93.5854 277.916 93.8906 278.086 94.1543C278.257 94.418 278.475 94.6255 278.738 94.7769C279.002 94.9233 279.317 94.9966 279.683 94.9966C280.132 94.9966 280.501 94.9014 280.789 94.7109C281.082 94.5205 281.316 94.269 281.492 93.9565C281.668 93.644 281.805 93.3047 281.902 92.9385V91.1733C281.844 90.9048 281.758 90.646 281.646 90.397C281.539 90.1431 281.397 89.9185 281.221 89.7231C281.05 89.5229 280.838 89.3643 280.584 89.2471C280.335 89.1299 280.04 89.0713 279.698 89.0713C279.327 89.0713 279.007 89.1494 278.738 89.3057C278.475 89.457 278.257 89.667 278.086 89.9355C277.916 90.1992 277.789 90.5068 277.706 90.8584C277.627 91.2051 277.588 91.5762 277.588 91.9717ZM284.671 92.1255V91.957C284.671 91.3857 284.754 90.856 284.92 90.3677C285.086 89.8745 285.325 89.4473 285.638 89.0859C285.95 88.7197 286.329 88.4365 286.773 88.2363C287.217 88.0312 287.715 87.9287 288.267 87.9287C288.824 87.9287 289.324 88.0312 289.769 88.2363C290.218 88.4365 290.599 88.7197 290.911 89.0859C291.229 89.4473 291.47 89.8745 291.636 90.3677C291.802 90.856 291.885 91.3857 291.885 91.957V92.1255C291.885 92.6968 291.802 93.2266 291.636 93.7148C291.47 94.2031 291.229 94.6304 290.911 94.9966C290.599 95.3579 290.22 95.6411 289.776 95.8462C289.336 96.0464 288.838 96.1465 288.282 96.1465C287.725 96.1465 287.225 96.0464 286.78 95.8462C286.336 95.6411 285.955 95.3579 285.638 94.9966C285.325 94.6304 285.086 94.2031 284.92 93.7148C284.754 93.2266 284.671 92.6968 284.671 92.1255ZM286.026 91.957V92.1255C286.026 92.521 286.072 92.8945 286.165 93.2461C286.258 93.5928 286.397 93.9004 286.583 94.1689C286.773 94.4375 287.01 94.6499 287.293 94.8062C287.576 94.9575 287.906 95.0332 288.282 95.0332C288.653 95.0332 288.978 94.9575 289.256 94.8062C289.539 94.6499 289.773 94.4375 289.959 94.1689C290.145 93.9004 290.284 93.5928 290.376 93.2461C290.474 92.8945 290.523 92.521 290.523 92.1255V91.957C290.523 91.5664 290.474 91.1978 290.376 90.8511C290.284 90.4995 290.142 90.1895 289.952 89.9209C289.766 89.6475 289.532 89.4326 289.249 89.2764C288.97 89.1201 288.643 89.042 288.267 89.042C287.896 89.042 287.569 89.1201 287.286 89.2764C287.007 89.4326 286.773 89.6475 286.583 89.9209C286.397 90.1895 286.258 90.4995 286.165 90.8511C286.072 91.1978 286.026 91.5664 286.026 91.957ZM301.919 93.8979C301.919 93.7026 301.875 93.522 301.788 93.356C301.705 93.1851 301.531 93.0312 301.268 92.8945C301.009 92.7529 300.618 92.6309 300.096 92.5283C299.656 92.4355 299.258 92.3257 298.902 92.1987C298.55 92.0718 298.25 91.918 298.001 91.7373C297.757 91.5566 297.569 91.3442 297.437 91.1001C297.305 90.856 297.239 90.5703 297.239 90.2432C297.239 89.9307 297.308 89.6353 297.444 89.3569C297.586 89.0786 297.784 88.832 298.038 88.6172C298.296 88.4023 298.606 88.2339 298.968 88.1118C299.329 87.9897 299.732 87.9287 300.176 87.9287C300.811 87.9287 301.353 88.041 301.802 88.2656C302.251 88.4902 302.596 88.7905 302.835 89.1665C303.074 89.5376 303.194 89.9502 303.194 90.4043H301.839C301.839 90.1846 301.773 89.9722 301.641 89.7671C301.514 89.5571 301.326 89.3838 301.077 89.2471C300.833 89.1104 300.533 89.042 300.176 89.042C299.8 89.042 299.495 89.1006 299.261 89.2178C299.031 89.3301 298.863 89.4741 298.755 89.6499C298.653 89.8257 298.602 90.0112 298.602 90.2065C298.602 90.353 298.626 90.4849 298.675 90.6021C298.729 90.7144 298.821 90.8193 298.953 90.917C299.085 91.0098 299.271 91.0977 299.51 91.1807C299.749 91.2637 300.054 91.3467 300.425 91.4297C301.075 91.5762 301.609 91.752 302.029 91.957C302.449 92.1621 302.762 92.4136 302.967 92.7114C303.172 93.0093 303.274 93.3706 303.274 93.7954C303.274 94.1421 303.201 94.4595 303.055 94.7476C302.913 95.0356 302.706 95.2847 302.432 95.4946C302.164 95.6997 301.841 95.8608 301.465 95.978C301.094 96.0903 300.677 96.1465 300.213 96.1465C299.515 96.1465 298.924 96.022 298.44 95.7729C297.957 95.5239 297.591 95.2017 297.342 94.8062C297.093 94.4106 296.968 93.9932 296.968 93.5537H298.331C298.35 93.9248 298.458 94.2202 298.653 94.4399C298.848 94.6548 299.087 94.8086 299.371 94.9014C299.654 94.9893 299.935 95.0332 300.213 95.0332C300.584 95.0332 300.894 94.9844 301.143 94.8867C301.397 94.7891 301.59 94.6548 301.722 94.4839C301.854 94.313 301.919 94.1177 301.919 93.8979ZM308.343 96.1465C307.791 96.1465 307.291 96.0537 306.841 95.8682C306.397 95.6777 306.014 95.4116 305.691 95.0698C305.374 94.728 305.13 94.3228 304.959 93.854C304.788 93.3853 304.703 92.8726 304.703 92.3159V92.0083C304.703 91.3638 304.798 90.79 304.988 90.2871C305.179 89.7793 305.438 89.3496 305.765 88.998C306.092 88.6465 306.463 88.3804 306.878 88.1997C307.293 88.019 307.723 87.9287 308.167 87.9287C308.733 87.9287 309.222 88.0264 309.632 88.2217C310.047 88.417 310.386 88.6904 310.65 89.042C310.914 89.3887 311.109 89.7988 311.236 90.2725C311.363 90.7412 311.426 91.2539 311.426 91.8105V92.4185H305.508V91.3125H310.071V91.21C310.052 90.8584 309.979 90.5166 309.852 90.1846C309.729 89.8525 309.534 89.5791 309.266 89.3643C308.997 89.1494 308.631 89.042 308.167 89.042C307.859 89.042 307.576 89.1079 307.317 89.2397C307.059 89.3667 306.836 89.5571 306.651 89.811C306.465 90.0649 306.321 90.375 306.219 90.7412C306.116 91.1074 306.065 91.5298 306.065 92.0083V92.3159C306.065 92.6919 306.116 93.0459 306.219 93.3779C306.326 93.7051 306.48 93.9932 306.68 94.2422C306.885 94.4912 307.132 94.6865 307.42 94.8281C307.713 94.9697 308.045 95.0405 308.416 95.0405C308.895 95.0405 309.3 94.9429 309.632 94.7476C309.964 94.5522 310.254 94.291 310.503 93.9639L311.324 94.6157C311.153 94.8745 310.936 95.1211 310.672 95.3555C310.408 95.5898 310.083 95.7803 309.698 95.9268C309.317 96.0732 308.865 96.1465 308.343 96.1465ZM317.857 94.1689V88.0752H319.219V96H317.923L317.857 94.1689ZM318.113 92.499L318.677 92.4844C318.677 93.0117 318.621 93.5 318.509 93.9492C318.401 94.3936 318.226 94.7793 317.981 95.1064C317.737 95.4336 317.417 95.6899 317.022 95.8755C316.626 96.0562 316.146 96.1465 315.579 96.1465C315.193 96.1465 314.839 96.0903 314.517 95.978C314.2 95.8657 313.926 95.6924 313.697 95.458C313.467 95.2236 313.289 94.9185 313.162 94.5425C313.04 94.1665 312.979 93.7148 312.979 93.1875V88.0752H314.334V93.2021C314.334 93.5586 314.373 93.854 314.451 94.0884C314.534 94.3179 314.644 94.501 314.781 94.6377C314.922 94.7695 315.079 94.8623 315.25 94.916C315.425 94.9697 315.606 94.9966 315.792 94.9966C316.368 94.9966 316.824 94.8867 317.161 94.667C317.498 94.4424 317.74 94.1421 317.886 93.7661C318.038 93.3853 318.113 92.9629 318.113 92.499ZM326.36 89.7671V96H325.005V88.0752H326.287L326.36 89.7671ZM326.038 91.7373L325.474 91.7153C325.479 91.1733 325.56 90.6729 325.716 90.2139C325.872 89.75 326.092 89.3472 326.375 89.0054C326.658 88.6636 326.995 88.3999 327.386 88.2144C327.781 88.0239 328.218 87.9287 328.697 87.9287C329.087 87.9287 329.439 87.9824 329.751 88.0898C330.064 88.1924 330.33 88.3584 330.55 88.5879C330.774 88.8174 330.945 89.1152 331.062 89.4814C331.18 89.8428 331.238 90.2847 331.238 90.8071V96H329.876V90.7925C329.876 90.3774 329.815 90.0454 329.693 89.7964C329.571 89.5425 329.393 89.3594 329.158 89.2471C328.924 89.1299 328.636 89.0713 328.294 89.0713C327.957 89.0713 327.649 89.1421 327.371 89.2837C327.098 89.4253 326.861 89.6206 326.661 89.8696C326.465 90.1187 326.312 90.4043 326.199 90.7266C326.092 91.0439 326.038 91.3809 326.038 91.7373ZM336.585 96.1465C336.033 96.1465 335.533 96.0537 335.083 95.8682C334.639 95.6777 334.256 95.4116 333.934 95.0698C333.616 94.728 333.372 94.3228 333.201 93.854C333.03 93.3853 332.945 92.8726 332.945 92.3159V92.0083C332.945 91.3638 333.04 90.79 333.23 90.2871C333.421 89.7793 333.68 89.3496 334.007 88.998C334.334 88.6465 334.705 88.3804 335.12 88.1997C335.535 88.019 335.965 87.9287 336.409 87.9287C336.976 87.9287 337.464 88.0264 337.874 88.2217C338.289 88.417 338.628 88.6904 338.892 89.042C339.156 89.3887 339.351 89.7988 339.478 90.2725C339.605 90.7412 339.668 91.2539 339.668 91.8105V92.4185H333.75V91.3125H338.313V91.21C338.294 90.8584 338.221 90.5166 338.094 90.1846C337.972 89.8525 337.776 89.5791 337.508 89.3643C337.239 89.1494 336.873 89.042 336.409 89.042C336.102 89.042 335.818 89.1079 335.56 89.2397C335.301 89.3667 335.079 89.5571 334.893 89.811C334.708 90.0649 334.563 90.375 334.461 90.7412C334.358 91.1074 334.307 91.5298 334.307 92.0083V92.3159C334.307 92.6919 334.358 93.0459 334.461 93.3779C334.568 93.7051 334.722 93.9932 334.922 94.2422C335.127 94.4912 335.374 94.6865 335.662 94.8281C335.955 94.9697 336.287 95.0405 336.658 95.0405C337.137 95.0405 337.542 94.9429 337.874 94.7476C338.206 94.5522 338.497 94.291 338.746 93.9639L339.566 94.6157C339.395 94.8745 339.178 95.1211 338.914 95.3555C338.65 95.5898 338.326 95.7803 337.94 95.9268C337.559 96.0732 337.107 96.1465 336.585 96.1465ZM346.385 88.0752H347.615V95.8315C347.615 96.5298 347.474 97.1255 347.19 97.6187C346.907 98.1118 346.512 98.4854 346.004 98.7393C345.501 98.998 344.92 99.1274 344.261 99.1274C343.987 99.1274 343.665 99.0835 343.294 98.9956C342.928 98.9126 342.566 98.7686 342.21 98.5635C341.858 98.3633 341.563 98.0923 341.324 97.7505L342.034 96.9448C342.366 97.3452 342.713 97.6235 343.074 97.7798C343.44 97.936 343.802 98.0142 344.158 98.0142C344.588 98.0142 344.959 97.9336 345.271 97.7725C345.584 97.6113 345.826 97.3721 345.997 97.0547C346.172 96.7422 346.26 96.3564 346.26 95.8975V89.8184L346.385 88.0752ZM340.928 92.1255V91.9717C340.928 91.3662 340.999 90.8169 341.141 90.3237C341.287 89.8257 341.495 89.3984 341.763 89.042C342.037 88.6855 342.366 88.4121 342.752 88.2217C343.138 88.0264 343.572 87.9287 344.056 87.9287C344.554 87.9287 344.988 88.0166 345.359 88.1924C345.735 88.3633 346.053 88.6147 346.312 88.9468C346.575 89.2739 346.783 89.6694 346.934 90.1333C347.085 90.5972 347.19 91.1221 347.249 91.708V92.3818C347.195 92.9629 347.09 93.4854 346.934 93.9492C346.783 94.4131 346.575 94.8086 346.312 95.1357C346.053 95.4629 345.735 95.7144 345.359 95.8901C344.983 96.061 344.544 96.1465 344.041 96.1465C343.567 96.1465 343.138 96.0464 342.752 95.8462C342.371 95.646 342.044 95.3652 341.771 95.0039C341.497 94.6426 341.287 94.2178 341.141 93.7295C340.999 93.2363 340.928 92.7017 340.928 92.1255ZM342.283 91.9717V92.1255C342.283 92.521 342.322 92.8921 342.4 93.2388C342.483 93.5854 342.608 93.8906 342.774 94.1543C342.945 94.418 343.162 94.6255 343.426 94.7769C343.689 94.9233 344.004 94.9966 344.371 94.9966C344.82 94.9966 345.191 94.9014 345.484 94.7109C345.777 94.5205 346.009 94.269 346.18 93.9565C346.355 93.644 346.492 93.3047 346.59 92.9385V91.1733C346.536 90.9048 346.453 90.646 346.341 90.397C346.233 90.1431 346.092 89.9185 345.916 89.7231C345.745 89.5229 345.533 89.3643 345.279 89.2471C345.025 89.1299 344.727 89.0713 344.385 89.0713C344.014 89.0713 343.694 89.1494 343.426 89.3057C343.162 89.457 342.945 89.667 342.774 89.9355C342.608 90.1992 342.483 90.5068 342.4 90.8584C342.322 91.2051 342.283 91.5762 342.283 91.9717ZM349.314 92.1255V91.957C349.314 91.3857 349.397 90.856 349.563 90.3677C349.729 89.8745 349.969 89.4473 350.281 89.0859C350.594 88.7197 350.972 88.4365 351.417 88.2363C351.861 88.0312 352.359 87.9287 352.911 87.9287C353.467 87.9287 353.968 88.0312 354.412 88.2363C354.861 88.4365 355.242 88.7197 355.555 89.0859C355.872 89.4473 356.114 89.8745 356.28 90.3677C356.446 90.856 356.529 91.3857 356.529 91.957V92.1255C356.529 92.6968 356.446 93.2266 356.28 93.7148C356.114 94.2031 355.872 94.6304 355.555 94.9966C355.242 95.3579 354.864 95.6411 354.419 95.8462C353.98 96.0464 353.482 96.1465 352.925 96.1465C352.369 96.1465 351.868 96.0464 351.424 95.8462C350.979 95.6411 350.599 95.3579 350.281 94.9966C349.969 94.6304 349.729 94.2031 349.563 93.7148C349.397 93.2266 349.314 92.6968 349.314 92.1255ZM350.669 91.957V92.1255C350.669 92.521 350.716 92.8945 350.809 93.2461C350.901 93.5928 351.041 93.9004 351.226 94.1689C351.417 94.4375 351.653 94.6499 351.937 94.8062C352.22 94.9575 352.549 95.0332 352.925 95.0332C353.296 95.0332 353.621 94.9575 353.899 94.8062C354.183 94.6499 354.417 94.4375 354.603 94.1689C354.788 93.9004 354.927 93.5928 355.02 93.2461C355.118 92.8945 355.167 92.521 355.167 92.1255V91.957C355.167 91.5664 355.118 91.1978 355.02 90.8511C354.927 90.4995 354.786 90.1895 354.595 89.9209C354.41 89.6475 354.175 89.4326 353.892 89.2764C353.614 89.1201 353.287 89.042 352.911 89.042C352.54 89.042 352.212 89.1201 351.929 89.2764C351.651 89.4326 351.417 89.6475 351.226 89.9209C351.041 90.1895 350.901 90.4995 350.809 90.8511C350.716 91.1978 350.669 91.5664 350.669 91.957ZM352.105 86.9033L353.526 84.75H355.159L353.196 86.9033H352.105ZM361.399 95.0332C361.722 95.0332 362.02 94.9673 362.293 94.8354C362.566 94.7036 362.791 94.5229 362.967 94.2935C363.143 94.0591 363.243 93.793 363.267 93.4951H364.556C364.532 93.9639 364.373 94.4009 364.08 94.8062C363.792 95.2065 363.414 95.5312 362.945 95.7803C362.476 96.0244 361.961 96.1465 361.399 96.1465C360.804 96.1465 360.284 96.0415 359.839 95.8315C359.4 95.6216 359.034 95.3335 358.741 94.9673C358.453 94.6011 358.235 94.1812 358.089 93.7075C357.947 93.229 357.876 92.7236 357.876 92.1914V91.8838C357.876 91.3516 357.947 90.8486 358.089 90.375C358.235 89.8965 358.453 89.4741 358.741 89.1079C359.034 88.7417 359.4 88.4536 359.839 88.2437C360.284 88.0337 360.804 87.9287 361.399 87.9287C362.02 87.9287 362.562 88.0557 363.025 88.3096C363.489 88.5586 363.853 88.9004 364.117 89.335C364.385 89.7646 364.532 90.2529 364.556 90.7998H363.267C363.243 90.4727 363.15 90.1772 362.989 89.9136C362.833 89.6499 362.618 89.4399 362.344 89.2837C362.076 89.1226 361.761 89.042 361.399 89.042C360.984 89.042 360.635 89.125 360.352 89.291C360.074 89.4521 359.852 89.6719 359.686 89.9502C359.524 90.2236 359.407 90.5288 359.334 90.8657C359.266 91.1978 359.231 91.5371 359.231 91.8838V92.1914C359.231 92.5381 359.266 92.8799 359.334 93.2168C359.402 93.5537 359.517 93.8589 359.678 94.1323C359.844 94.4058 360.066 94.6255 360.345 94.7915C360.628 94.9526 360.979 95.0332 361.399 95.0332ZM367.552 88.0752V96H366.189V88.0752H367.552ZM366.087 85.9731C366.087 85.7534 366.153 85.5679 366.285 85.4165C366.421 85.2651 366.622 85.1895 366.885 85.1895C367.144 85.1895 367.342 85.2651 367.479 85.4165C367.62 85.5679 367.691 85.7534 367.691 85.9731C367.691 86.1831 367.62 86.3638 367.479 86.5151C367.342 86.6616 367.144 86.7349 366.885 86.7349C366.622 86.7349 366.421 86.6616 366.285 86.5151C366.153 86.3638 366.087 86.1831 366.087 85.9731ZM369.368 92.1255V91.957C369.368 91.3857 369.451 90.856 369.617 90.3677C369.783 89.8745 370.022 89.4473 370.335 89.0859C370.647 88.7197 371.026 88.4365 371.47 88.2363C371.915 88.0312 372.413 87.9287 372.964 87.9287C373.521 87.9287 374.021 88.0312 374.466 88.2363C374.915 88.4365 375.296 88.7197 375.608 89.0859C375.926 89.4473 376.167 89.8745 376.333 90.3677C376.5 90.856 376.583 91.3857 376.583 91.957V92.1255C376.583 92.6968 376.5 93.2266 376.333 93.7148C376.167 94.2031 375.926 94.6304 375.608 94.9966C375.296 95.3579 374.917 95.6411 374.473 95.8462C374.034 96.0464 373.536 96.1465 372.979 96.1465C372.422 96.1465 371.922 96.0464 371.478 95.8462C371.033 95.6411 370.652 95.3579 370.335 94.9966C370.022 94.6304 369.783 94.2031 369.617 93.7148C369.451 93.2266 369.368 92.6968 369.368 92.1255ZM370.723 91.957V92.1255C370.723 92.521 370.77 92.8945 370.862 93.2461C370.955 93.5928 371.094 93.9004 371.28 94.1689C371.47 94.4375 371.707 94.6499 371.99 94.8062C372.273 94.9575 372.603 95.0332 372.979 95.0332C373.35 95.0332 373.675 94.9575 373.953 94.8062C374.236 94.6499 374.471 94.4375 374.656 94.1689C374.842 93.9004 374.981 93.5928 375.074 93.2461C375.171 92.8945 375.22 92.521 375.22 92.1255V91.957C375.22 91.5664 375.171 91.1978 375.074 90.8511C374.981 90.4995 374.839 90.1895 374.649 89.9209C374.463 89.6475 374.229 89.4326 373.946 89.2764C373.667 89.1201 373.34 89.042 372.964 89.042C372.593 89.042 372.266 89.1201 371.983 89.2764C371.705 89.4326 371.47 89.6475 371.28 89.9209C371.094 90.1895 370.955 90.4995 370.862 90.8511C370.77 91.1978 370.723 91.5664 370.723 91.957Z" fill="#FAF0CA"/>
<defs>
<radialGradient id="paint0_radial_103_29" cx="0" cy="0" r="1" gradientUnits="userSpaceOnUse" gradientTransform="translate(-16.6263 115.895) rotate(-38.211) scale(175.505 178.05)">
<stop offset="0.27551" stop-color="#DF2935" stop-opacity="0.76"/>
<stop offset="0.767088" stop-color="#87B7FF" stop-opacity="0.61"/>
</radialGradient>
</defs>
</svg>
