<?xml version="1.0" encoding="utf-8"?>
<!-- Generator: Adobe Illustrator 25.2.0, SVG Export Plug-In . SVG Version: 6.00 Build 0)  -->
<svg version="1.1" id="Capa_1" xmlns="http://www.w3.org/2000/svg" xmlns:xlink="http://www.w3.org/1999/xlink" x="0px" y="0px"
	 viewBox="0 0 512 512" style="enable-background:new 0 0 512 512;" xml:space="preserve">
<style type="text/css">
	.st0{fill:#DD1964;}
</style>
<g>
	<g>
		<path class="st0" d="M482,341.3h-43.3V90c0-5.5-4.5-10-10-10h-30V50c0-5.5-4.5-10-10-10h-30V10c0-5.5-4.5-10-10-10H247.3
			c-5.5,0-10,4.5-10,10s4.5,10,10,10h91.3v20H167.3c-5.5,0-10,4.5-10,10v194.3c-7.1,3-13.8,6.7-20,11.2V20h30c5.5,0,10-4.5,10-10
			s-4.5-10-10-10h-40c-5.5,0-10,4.5-10,10v264.6c-13.5,17-21.5,38.5-21.5,61.8c0,23.9,8.5,45.9,22.5,63.1L108,409.8
			c-3.8-3.8-8.8-5.8-14.1-5.8l0,0c-5.3,0-10.4,2.1-14.1,5.8l-54,54c-7.8,7.8-7.8,20.5,0,28.2l14.1,14.1c3.9,3.9,9,5.8,14.1,5.8
			c5.1,0,10.2-1.9,14.1-5.8l54-53.9c3.8-3.8,5.8-8.8,5.8-14.1c0-5.3-2.1-10.3-5.8-14.1l10.4-10.4c17.2,14.1,39.2,22.5,63.1,22.5
			c30.2,0,57.4-13.5,75.7-34.8h77.4c5.5,0,10-4.5,10-10c0-5.5-4.5-10-10-10h-64c3.2-6.3,5.7-13,7.6-20H472v3.3
			c0,9.2-7.5,16.7-16.7,16.7h-26.7c-5.5,0-10,4.5-10,10c0,5.5,4.5,10,10,10h26.7c20.2,0,36.7-16.4,36.7-36.7v-13.3
			C492,345.8,487.5,341.3,482,341.3z M177.3,60h201.3v20H207.3c-5.5,0-10,4.5-10,10v146.6c-0.6,0-1.2,0-1.7,0
			c-6.2,0-12.3,0.6-18.3,1.7V60z M54.1,492L40,477.9L93.9,424l6.9,6.8c0.1,0.1,0.1,0.1,0.2,0.2c0.1,0.1,0.1,0.1,0.2,0.2l6.9,6.8
			L54.1,492z M195.6,416.2c-44,0-79.8-35.8-79.8-79.8s35.8-79.8,79.8-79.8s79.8,35.8,79.8,79.8S239.6,416.2,195.6,416.2z
			 M418.7,341.3H295.3c0.1-1.6,0.1-3.3,0.1-4.9c0-9.1-1.2-18-3.6-26.4h96.8c5.5,0,10-4.5,10-10c0-5.5-4.5-10-10-10H283.9
			c-3.8-7.2-8.5-13.9-13.9-20h118.7c5.5,0,10-4.5,10-10c0-5.5-4.5-10-10-10H247.3c-0.6,0-1.1,0.1-1.6,0.1
			c-8.7-5.1-18.3-8.9-28.4-11.1V100h201.3V341.3z"/>
		<path class="st0" d="M247.3,150H318c5.5,0,10-4.5,10-10s-4.5-10-10-10h-70.7c-5.5,0-10,4.5-10,10S241.8,150,247.3,150z"/>
		<path class="st0" d="M247.3,170c-5.5,0-10,4.5-10,10s4.5,10,10,10h141.3c5.5,0,10-4.5,10-10s-4.5-10-10-10H247.3z"/>
		<path class="st0" d="M388.7,210H247.3c-5.5,0-10,4.5-10,10c0,5.5,4.5,10,10,10h141.3c5.5,0,10-4.5,10-10
			C398.7,214.5,394.2,210,388.7,210z"/>
		<path class="st0" d="M207.3,20c5.5,0,10-4.5,10-10s-4.5-10-10-10h0c-5.5,0-10,4.5-10,10S201.8,20,207.3,20z"/>
		<path class="st0" d="M388.7,381.3L388.7,381.3c-5.5,0-10,4.5-10,10c0,5.5,4.5,10,10,10c5.5,0,10-4.5,10-10
			C398.7,385.8,394.2,381.3,388.7,381.3z"/>
	</g>
</g>
</svg>
