<?xml version="1.0" encoding="utf-8"?>
<!-- Generator: Adobe Illustrator 25.2.0, SVG Export Plug-In . SVG Version: 6.00 Build 0)  -->
<svg version="1.1" id="Capa_1" xmlns="http://www.w3.org/2000/svg" xmlns:xlink="http://www.w3.org/1999/xlink" x="0px" y="0px"
	 viewBox="0 0 512 512" style="enable-background:new 0 0 512 512;" xml:space="preserve">
<style type="text/css">
	.st0{fill:#DD1964;}
</style>
<g>
	<g>
		<path class="st0" d="M470.9,37.3h-65.4c-4.1,0-7.5,3.4-7.5,7.5s3.4,7.5,7.5,7.5h65.4c4.1,0,7.5-3.4,7.5-7.5S475.1,37.3,470.9,37.3
			z"/>
		<path class="st0" d="M368.3,52.3h8c4.1,0,7.5-3.4,7.5-7.5s-3.4-7.5-7.5-7.5h-8c-4.1,0-7.5,3.4-7.5,7.5S364.2,52.3,368.3,52.3z"/>
		<path class="st0" d="M368.3,87.5h102.6c4.1,0,7.5-3.4,7.5-7.5s-3.4-7.5-7.5-7.5H368.3c-4.1,0-7.5,3.4-7.5,7.5
			S364.2,87.5,368.3,87.5z"/>
		<path class="st0" d="M395.4,444.1c0-30-10-59.4-28.2-83.1l1.4-25.6c0.9-17.4-12.9-32.2-30.5-32.2H256c-3.8-2.7-6.1-7-6.1-11.7
			v-20.9c12.7-8.2,21.7-17.6,28.2-28.8h14.5c16.8,0,30.5-13.7,30.5-30.5v-56c0-9.4-5.5-17.8-13.6-21.7V94.3
			c0-17.9-14.6-32.5-32.5-32.5h-0.8c-0.5,0-0.9-0.4-0.9-0.9c0-17.9-14.6-32.5-32.5-32.5h-79.4c-39.4,0-71.5,32.1-71.5,71.5v33.6
			c-8.2,4-13.6,12.3-13.6,21.7v28.5c0,13.3,10.8,24.2,24.2,24.2h9.7c2.5,21.2,12.4,40.6,28,54c3.7,3.2,7.4,6,11.3,8.5v21
			c0,4.7-2.3,9-6.1,11.7H63.3c-17.5,0-31.4,14.6-30.5,32.2l1.4,25.6C16,384.7,6,414.1,6,444.1v28.2c-3.7,4.2-6,9.7-6,15.7
			c0,13,10.6,23.6,23.6,23.6h354.2c13,0,23.6-10.6,23.6-23.6c0-6-2.3-11.5-6-15.7L395.4,444.1z M380.4,444.1v20.5
			c-0.9-0.1-1.7-0.1-2.6-0.1h-16.2l4.2-78C375.3,404.1,380.4,423.9,380.4,444.1L380.4,444.1z M307.4,151.7c0.5,1.1,0.8,2.4,0.8,3.7
			v28.5c0,5.1-4.1,9.2-9.2,9.2h-8.9v-28.3l4.6-1.6C300.4,161.1,304.9,156.9,307.4,151.7z M257.3,238.6h-18.8c-3,0-5.5-2.5-5.5-5.5
			s2.5-5.5,5.5-5.5h18.8c3,0,5.5,2.5,5.5,5.5S260.4,238.6,257.3,238.6z M292.7,226.8h-7.6c2.1-6,3.6-12.3,4.3-18.8h9.5
			c3.2,0,6.3-0.6,9.2-1.8v5.2C308.2,219.9,301.2,226.8,292.7,226.8z M106.9,99.9c0-31.2,25.3-56.5,56.5-56.5h79.4
			c9.6,0,17.5,7.8,17.5,17.5c0,8.8,7.1,15.9,15.9,15.9h0.8c9.6,0,17.5,7.8,17.5,17.5v48c0,3-1.9,5.7-4.8,6.7l-15.8,5.5
			c-0.6,0.2-1.3-0.2-1.3-0.9l0-29.8c0.1-21.8-20.3-40.7-48.8-31.6c-14.4,4.6-32.1,4.6-46.4,0c-28.2-9.1-48.9,9.6-48.8,31.5l0,29.8
			c0,0.7-0.7,1.1-1.3,0.9l-15.8-5.5c-2.8-1-4.8-3.7-4.8-6.7L106.9,99.9L106.9,99.9z M93.3,183.8v-28.5c0-1.3,0.3-2.5,0.8-3.7
			c2.5,5.2,7,9.4,12.7,11.4l4.6,1.6V193h-8.9C97.4,193,93.3,188.9,93.3,183.8z M126.5,199.3c-0.2-9.9-0.1-20.3-0.1-29.9
			c0.5,0,0.9,0.1,1.4,0.1c8.9,0,16-7.2,16-16l0-29.8c-0.1-12.2,10.9-23.1,29.2-17.2c17.4,5.6,38.3,5.6,55.6,0
			c17.5-5.6,29.3,4.3,29.2,17.2l0,29.8c0,9.3,7.9,16.7,17.4,15.9v30.5c-0.2,6.5-1.3,12.8-3.1,18.8c-3.7-3.8-8.9-6.2-14.7-6.2h-18.8
			c-11.3,0-20.5,9.2-20.5,20.5s9.2,20.5,20.5,20.5h9.5c-13.9,10.8-29.6,16.5-46.9,16.7C163.3,270,127.6,242,126.5,199.3L126.5,199.3
			z M166.5,291.5v-13.1c10.8,4.5,22.4,6.8,34.6,6.9h0.1c0,0,0.1,0,0.1,0c11.9-0.2,23.1-2.5,33.7-6.8v13.1c0,4.1,0.9,8.1,2.4,11.7
			H164C165.6,299.6,166.5,295.6,166.5,291.5L166.5,291.5z M35.6,386.4l1.2,21.8c0.2,4.1,3.8,7.3,7.9,7.1c4.1-0.2,7.3-3.8,7.1-7.9
			l-4-72.9c-0.5-8.9,6.6-16.4,15.5-16.4h274.8c8.9,0,16,7.4,15.5,16.4l-7,129.8H229c1.4-8.6,5.3-16.6,11.2-23.2l0.2-0.2
			c22.7-25.4,15.9-65.1-13.4-81.8c-7.5-4.3-17.1,1.1-17.1,9.9v34c0,1.6-1.3,2.8-2.8,2.8h-12.7c-1.6,0-2.8-1.3-2.8-2.8v-34
			c0-8.9-9.5-14.2-17.1-9.9C145,375.9,138.4,415.6,161,441l0.2,0.2c5.9,6.6,9.8,14.7,11.2,23.2H54.9l-1.2-22.2
			c-0.2-4.1-3.8-7.3-7.9-7.1c-4.1,0.2-7.3,3.8-7.1,7.9l1.2,21.4H23.6c-0.9,0-1.8,0.1-2.6,0.1v-20.5C21,423.9,26.1,404.1,35.6,386.4
			L35.6,386.4z M187.6,464.4c-1.5-12.3-6.8-23.9-15.2-33.3l-0.2-0.2c-14.5-16.2-12.6-41.3,4.3-55.1v27.3c0,9.8,8,17.8,17.8,17.8
			h12.7c9.8,0,17.8-8,17.8-17.8v-27.3c16.8,13.7,18.9,38.8,4.3,55.1l-0.2,0.2c-8.4,9.4-13.7,21-15.2,33.3H187.6z M377.8,496.7H23.6
			c-4.8,0-8.6-3.9-8.6-8.6s3.9-8.6,8.6-8.6h354.2c4.8,0,8.6,3.9,8.6,8.6S382.6,496.7,377.8,496.7z"/>
		<path class="st0" d="M504.5,51.6c4.1,0,7.5-3.4,7.5-7.5V29.6c0-16.2-13.1-29.3-29.3-29.3H356.5c-16.2,0-29.3,13.1-29.3,29.3v63.1
			c0,16.2,13.1,29.3,29.3,29.3c2.9,0,5.2,2.3,5.2,5.2v39c0,5.6,3.6,10.4,9.1,11.9c5.5,1.5,11-0.8,13.9-5.6l28.8-48.1
			c0.9-1.6,2.7-2.5,4.5-2.5h64.6c16.2,0,29.3-13.1,29.3-29.3V79.2c0-4.1-3.4-7.5-7.5-7.5s-7.5,3.4-7.5,7.5v13.5
			c0,7.9-6.4,14.3-14.3,14.3h-64.6c-7.1,0-13.7,3.8-17.4,9.8l-24,40v-29.6c0-11.2-9.1-20.2-20.2-20.2c-7.9,0-14.3-6.4-14.3-14.3
			V29.6c0-7.9,6.4-14.3,14.3-14.3h126.1c7.9,0,14.3,6.4,14.3,14.3v14.5C497,48.3,500.4,51.6,504.5,51.6L504.5,51.6z"/>
	</g>
</g>
</svg>
