<svg width="25" height="25" viewBox="0 0 25 25" fill="none" xmlns="http://www.w3.org/2000/svg">
<mask id="mask0_94_7" style="mask-type:alpha" maskUnits="userSpaceOnUse" x="0" y="0" width="25" height="25">
<rect x="0.753296" y="0.93573" width="24" height="24" fill="#D9D9D9"/>
</mask>
<g mask="url(#mask0_94_7)">
<path d="M9.1533 17.9357L12.7533 14.3357L16.3533 17.9357L17.7533 16.5357L14.1533 12.9357L17.7533 9.33573L16.3533 7.93573L12.7533 11.5357L9.1533 7.93573L7.7533 9.33573L11.3533 12.9357L7.7533 16.5357L9.1533 17.9357ZM12.7533 22.9357C11.37 22.9357 10.07 22.6731 8.8533 22.1477C7.63663 21.6231 6.5783 20.9107 5.6783 20.0107C4.7783 19.1107 4.06596 18.0524 3.5413 16.8357C3.01596 15.6191 2.7533 14.3191 2.7533 12.9357C2.7533 11.5524 3.01596 10.2524 3.5413 9.03573C4.06596 7.81906 4.7783 6.76073 5.6783 5.86073C6.5783 4.96073 7.63663 4.24806 8.8533 3.72273C10.07 3.19806 11.37 2.93573 12.7533 2.93573C14.1366 2.93573 15.4366 3.19806 16.6533 3.72273C17.87 4.24806 18.9283 4.96073 19.8283 5.86073C20.7283 6.76073 21.4406 7.81906 21.9653 9.03573C22.4906 10.2524 22.7533 11.5524 22.7533 12.9357C22.7533 14.3191 22.4906 15.6191 21.9653 16.8357C21.4406 18.0524 20.7283 19.1107 19.8283 20.0107C18.9283 20.9107 17.87 21.6231 16.6533 22.1477C15.4366 22.6731 14.1366 22.9357 12.7533 22.9357ZM12.7533 20.9357C14.9866 20.9357 16.8783 20.1607 18.4283 18.6107C19.9783 17.0607 20.7533 15.1691 20.7533 12.9357C20.7533 10.7024 19.9783 8.81073 18.4283 7.26073C16.8783 5.71073 14.9866 4.93573 12.7533 4.93573C10.52 4.93573 8.6283 5.71073 7.0783 7.26073C5.5283 8.81073 4.7533 10.7024 4.7533 12.9357C4.7533 15.1691 5.5283 17.0607 7.0783 18.6107C8.6283 20.1607 10.52 20.9357 12.7533 20.9357Z" fill="white"/>
</g>
</svg>
