<svg width="25" height="25" viewBox="0 0 25 25" fill="none" xmlns="http://www.w3.org/2000/svg">
<mask id="mask0_92_19" style="mask-type:alpha" maskUnits="userSpaceOnUse" x="0" y="0" width="25" height="25">
<rect x="0.306396" y="0.148438" width="24" height="24" fill="#D9D9D9"/>
</mask>
<g mask="url(#mask0_92_19)">
<path d="M7.3064 21.1484C6.7564 21.1484 6.28573 20.9528 5.8944 20.5614C5.5024 20.1694 5.3064 19.6984 5.3064 19.1484V6.14844H4.3064V4.14844H9.3064V3.14844H15.3064V4.14844H20.3064V6.14844H19.3064V19.1484C19.3064 19.6984 19.1107 20.1694 18.7194 20.5614C18.3274 20.9528 17.8564 21.1484 17.3064 21.1484H7.3064ZM17.3064 6.14844H7.3064V19.1484H17.3064V6.14844ZM9.3064 17.1484H11.3064V8.14844H9.3064V17.1484ZM13.3064 17.1484H15.3064V8.14844H13.3064V17.1484Z" fill="white"/>
</g>
</svg>
