<svg width="25" height="25" viewBox="0 0 25 25" fill="none" xmlns="http://www.w3.org/2000/svg">
<mask id="mask0_92_13" style="mask-type:alpha" maskUnits="userSpaceOnUse" x="0" y="0" width="25" height="25">
<rect x="0.306396" y="0.148438" width="24" height="24" fill="#D9D9D9"/>
</mask>
<g mask="url(#mask0_92_13)">
<path d="M10.3064 21.1484L14.3064 17.1484H22.3064V21.1484H10.3064ZM4.3064 19.1484H5.7064L14.3314 10.5234L12.9314 9.12344L4.3064 17.7484V19.1484ZM18.6064 9.07344L14.3564 4.87344L15.7564 3.47344C16.1397 3.0901 16.6107 2.89844 17.1694 2.89844C17.7274 2.89844 18.1981 3.0901 18.5814 3.47344L19.9814 4.87344C20.3647 5.25677 20.5647 5.71944 20.5814 6.26144C20.5981 6.80277 20.4147 7.2651 20.0314 7.64844L18.6064 9.07344ZM17.1564 10.5484L6.5564 21.1484H2.3064V16.8984L12.9064 6.29844L17.1564 10.5484Z" fill="white"/>
</g>
</svg>
